<svg xmlns="http://www.w3.org/2000/svg" xmlns:xlink="http://www.w3.org/1999/xlink" version="1.1" id="Your_Icon" x="0px" y="0px" width="100px" height="100px" viewBox="0 0 100 100" enable-background="new 0 0 100 100" xml:space="preserve">
<g transform="translate(0.000000,1014.000000) scale(0.100000,-0.100000)">
	<path fill="#000000" d="M239.238,9897.572c-35.576-5.156-66.216-24.18-82.188-51.04l-3.413-5.664l-69.194-22.363   c-38.047-12.344-70.864-23.164-72.974-24.111c-4.644-2.1-10.093-7.041-11.035-10.02c-0.508-1.445-0.581-5.01-0.146-9.648   c0.654-8.574,1.602-10.391,7.48-14.307c12.271-7.988,372.764-235.029,376.47-236.992c9.653-5.225,20.4-7.627,34.268-7.627   c9.731,0,15.537,0.801,23.599,3.125c2.759,0.869,23.018,8.857,45.015,17.861c22.002,9.004,42.979,17.139,46.543,18.154   c4.863,1.309,9.072,1.885,16.631,2.178c14.59,0.576,26.279-1.377,35.791-6.104c2.324-1.162,70.576-41.094,151.602-88.721   c81.104-47.705,149.57-87.783,152.256-89.16c11.543-5.879,23.086-8.428,37.979-8.428c16.553,0,21.562,1.455,45.518,13.213   c23.096,11.328,24.766,13.076,26.143,28.32c0.654,7.695,0.586,9.219-0.439,11.982c-1.445,3.779-5.371,8.418-9.365,11.25   c-1.67,1.162-71.66,40.371-155.518,87.129c-133.242,74.355-152.91,85.537-156.113,88.799l-3.555,3.701l3.271,2.979   c1.807,1.67,4.424,3.564,5.811,4.209c1.377,0.732,18.145,7.627,37.383,15.4c43.066,17.422,42.266,17.061,45.967,20.469   c4.287,3.848,4.932,5.449,5.518,14.16c0.586,9.297-0.078,11.328-5.156,15.83c-2.617,2.246-32.529,18.301-109.854,58.809   l-106.299,55.693l-1.67,6.094c-4.131,15.684-11.25,28.174-23.154,40.596c-12.422,12.993-26.362,21.851-43.643,27.876   c-23.091,8.062-46.978,9.224-69.268,3.486l-7.622-1.958l-17.065,8.999c-9.365,4.941-18.95,9.805-21.274,10.747   c-7.476,3.125-14.375,4.287-26.646,4.287c-12.485,0-14.883-0.439-28.896-4.868c-8.643-2.686-9.946-2.974-12.344-2.251   c-1.45,0.508-5.952,1.816-9.873,3.052c-3.994,1.235-10.386,2.905-14.16,3.774C266.47,9898.373,248.75,9898.881,239.238,9897.572z    M279.902,9881.308c13.794-3.701,23.74-8.276,33.105-15.244c13.218-9.805,21.567-19.463,27.954-32.383   c1.963-3.994,3.56-7.773,3.56-8.281s-1.162-3.193-2.617-6.025c-2.9-5.811-6.46-16.191-7.188-21.123   c-0.288-1.748-0.723-3.564-0.942-3.926c-0.288-0.439-3.774-1.309-7.769-1.963c-28.247-4.932-58.086-23.301-71.807-44.219   l-2.251-3.477h-4.868c-6.245,0-20.254,1.807-28.169,3.701c-25.415,5.879-44.8,17.93-55.254,34.199   c-3.125,4.863-3.848,6.602-4.429,10.957c-2.109,15.029,3.701,35,14.883,51.191c10.381,15.103,29.116,28.823,47.051,34.487   c13.433,4.282,17.788,4.863,34.775,4.575C270.679,9883.559,271.987,9883.412,279.902,9881.308z M462.725,9862.577   c14.087-2.832,28.823-9.224,39.355-17.061c16.26-11.982,26.934-26.65,32.451-44.727c1.67-5.596,1.963-7.695,1.963-16.553   c0.068-9.443-0.068-10.527-1.816-14.6c-9.072-21.201-35.576-37.539-69.995-43.125c-11.758-1.963-11.904-1.963-12.852,0.938   c-1.885,5.303-8.13,16.777-12.197,22.295c-7.983,10.742-19.673,21.133-31.802,28.32c-5.151,3.047-5.298,3.193-3.921,4.277   c0.801,0.654,2.617,3.701,4.067,6.904c5.737,12.627,16.191,25.117,27.446,32.891c3.047,2.1,6.025,4.062,6.68,4.277   c1.743,0.654,11.543-6.533,19.023-13.867c4.209-4.141,8.203-9.072,11.035-13.428c5.811-9.15,7.48-10.898,10.312-10.898   c2.974,0,6.533,3.418,6.533,6.25c0,4.287-11.035,20.039-19.678,28.242c-3.628,3.486-9.873,8.711-12.197,10.312   c-0.146,0.146-0.146,0.361,0,0.576c0.796,0.801,14.668,4.072,21.348,5.088c6.172,0.869,7.476,1.309,8.931,2.9   c2.251,2.686,2.104,5.811-0.508,8.423c-2.471,2.471-3.56,2.544-12.778,1.016c-9.004-1.45-16.992-3.628-24.546-6.606l-6.387-2.617   l-6.68,2.979c-7.48,3.271-16.846,6.392-20.84,7.046c-4.502,0.728-7.915-1.89-7.983-6.03c0-3.848,2.319-5.518,11.758-8.496   c4.648-1.445,8.716-2.9,8.862-3.262c0.215-0.361-1.455-2.031-3.779-3.779c-6.68-5.01-15.752-14.736-20.835-22.363   c-5.518-8.271-9.805-17.207-9.805-20.322c0-1.24-0.073-2.256-0.215-2.256c-0.146,0-2.686,0.801-5.664,1.816   c-12.056,4.141-25.776,6.895-34.346,6.895c-2.612,0-4.79,0.293-4.79,0.654c0,1.309,5.298,15.762,7.041,19.238   c5.664,11.26,16.699,23.965,27.593,31.807c13.359,9.658,24.976,14.16,46.685,18.296   C433.901,9864.755,457.28,9863.739,462.725,9862.577z M372.837,9777.479c19.023-5.078,33.179-13.145,46.543-26.572   c8.857-8.857,16.699-22.148,20.254-34.561c1.963-6.973,2.759-19.971,1.455-25.488c-4.722-20.186-28.462-38.262-60.41-46.035   c-22.51-5.439-48.862-5.371-71.23,0.293c-24.976,6.318-42.69,17.861-53.145,34.561l-3.56,5.742l-0.288,8.564   c-0.366,9.805,0.361,14.521,3.848,24.541c6.46,18.809,18.296,34.121,34.995,45.303c11.328,7.48,19.751,11.035,35.068,14.6   c7.119,1.67,8.716,1.816,22.871,1.523C363.545,9779.735,364.995,9779.589,372.837,9777.479z"/>
	<path fill="#000000" d="M222.832,9871.435c-3.921-1.743-4.937-7.334-1.816-10.166c0.654-0.654,3.994-1.958,7.407-2.905   c3.34-1.016,7.476-2.393,9.219-3.12l3.125-1.309l-5.884-4.717c-7.48-5.811-14.155-13.066-19.604-21.201   c-5.225-7.695-9.585-16.699-9.653-19.893c-0.073-3.34,1.885-5.957,4.937-6.543c3.774-0.645,5.806,1.094,8.784,7.48   c5.811,12.852,16.846,25.85,28.75,33.906l6.245,4.219l5.737-3.848c8.35-5.742,18.804-16.416,23.96-24.619   c5.884-9.219,6.826-10.166,10.02-10.166c3.486,0,6.172,2.617,6.172,6.104c0,6.318-14.014,24.541-26.719,34.629l-5.229,4.214   l4.648,1.45c5.518,1.67,13.579,3.413,19.604,4.141c5.444,0.654,7.695,2.539,7.695,6.68c0,4.282-2.612,6.392-7.549,6.172   c-6.611-0.293-19.17-3.12-27.593-6.099c-4.429-1.67-8.711-3.125-9.512-3.34c-0.869-0.146-4.429,0.942-8.062,2.539   c-6.387,2.832-15.898,6.099-20.254,6.973C226.025,9872.235,224.067,9871.942,222.832,9871.435z"/>
	<path fill="#000000" d="M314.39,9766.083c-3.848-3.779-1.528-9.727,4.355-10.82c3.555-0.723,14.883-4.795,14.883-5.371   c-0.073-0.293-2.031-1.963-4.429-3.779c-5.806-4.277-14.736-13.652-19.531-20.4c-4.717-6.68-10.889-19.023-10.889-21.855   c0-2.9,3.481-6.387,6.46-6.387c2.905,0,5.303,2.393,7.334,7.256c5.229,12.705,16.772,26.357,29.624,34.922   c5.229,3.486,5.298,3.486,7.261,2.324c10.674-6.748,21.128-16.914,27.808-27.08c6.318-9.658,6.826-10.166,10.239-10.166   c3.486,0,6.387,2.549,6.387,5.596c0,2.607-5.298,11.973-10.381,18.223c-4.863,6.025-11.909,13.066-17.427,17.422   c-3.413,2.686-3.994,3.418-3.047,3.926c1.958,1.084,14.375,4.062,20.62,4.932c7.476,1.016,7.91,1.162,9.146,3.711   c1.597,3.047,1.309,5.586-0.796,7.695c-1.816,1.816-2.109,1.885-8.208,1.445c-7.622-0.576-20.908-3.848-29.478-7.256l-6.245-2.539   l-7.041,3.115c-9.077,3.994-18.369,6.904-22.002,6.904C316.929,9767.899,315.62,9767.392,314.39,9766.083z"/>
</g>
</svg>