<?xml version="1.0" encoding="UTF-8" standalone="no"?>
<svg
   xmlns:dc="http://purl.org/dc/elements/1.1/"
   xmlns:cc="http://creativecommons.org/ns#"
   xmlns:rdf="http://www.w3.org/1999/02/22-rdf-syntax-ns#"
   xmlns:svg="http://www.w3.org/2000/svg"
   xmlns="http://www.w3.org/2000/svg"
   xmlns:sodipodi="http://sodipodi.sourceforge.net/DTD/sodipodi-0.dtd"
   xmlns:inkscape="http://www.inkscape.org/namespaces/inkscape"
   version="1.1"
   x="0px"
   y="0px"
   width="100px"
   height="100px"
   viewBox="0 0 100 100"
   enable-background="new 0 0 100 100"
   xml:space="preserve"
   id="svg3035"
   inkscape:version="0.48.2 r9819"
   sodipodi:docname="icon_12539.svg"><metadata
   id="metadata3045"><rdf:RDF><cc:Work
       rdf:about=""><dc:format>image/svg+xml</dc:format><dc:type
         rdf:resource="http://purl.org/dc/dcmitype/StillImage" /><dc:title></dc:title></cc:Work></rdf:RDF></metadata><defs
   id="defs3043" /><sodipodi:namedview
   pagecolor="#ffffff"
   bordercolor="#666666"
   borderopacity="1"
   objecttolerance="10"
   gridtolerance="10"
   guidetolerance="10"
   inkscape:pageopacity="0"
   inkscape:pageshadow="2"
   inkscape:window-width="1008"
   inkscape:window-height="820"
   id="namedview3041"
   showgrid="false"
   inkscape:zoom="3.6482"
   inkscape:cx="57.915058"
   inkscape:cy="60.617761"
   inkscape:window-x="0"
   inkscape:window-y="0"
   inkscape:window-maximized="0"
   inkscape:current-layer="svg3035" />
<g
   id="Captions">
</g>
<g
   id="Your_Icon"
   style="fill:#95ba6a;fill-opacity:1"
   transform="matrix(0.92873198,0,0,0.92963476,3.5634011,3.5182266)">
	<path
   clip-rule="evenodd"
   d="m 20.028,44.993 0,0 c 11.062,0 20.038,8.976 20.038,20.029 0,11.068 -8.977,20.037 -20.038,20.037 C 8.968,85.059 0,76.09 0,65.021 0,53.969 8.968,44.993 20.028,44.993 m -0.161,8.708 0,0 c 6.161,0 11.164,5.07 11.164,11.32 0,6.258 -5.003,11.338 -11.164,11.338 -6.169,0 -11.167,-5.08 -11.167,-11.338 0,-6.25 4.998,-11.32 11.167,-11.32 m 68.147,7.385 0,0 c 6.626,0 11.986,5.375 11.986,11.982 0,6.617 -5.36,11.99 -11.986,11.99 -6.616,0 -11.985,-5.373 -11.985,-11.99 -10e-4,-6.607 5.368,-11.982 11.985,-11.982 m 0,6.894 0,0 c 2.723,0 4.932,2.209 4.932,4.926 0,2.719 -2.209,4.928 -4.932,4.928 -2.713,0 -4.926,-2.209 -4.926,-4.928 0,-2.717 2.213,-4.926 4.926,-4.926 M 94.09,37.929 c 0.661,0 0.983,0.491 0.983,0.992 v 0.312 c -1.149,5.589 -2.298,11.177 -3.612,16.764 h 8.378 v 8.379 c -2.624,-3.781 -6.894,-5.92 -11.655,-5.92 -5.914,-0.16 -11.176,3.451 -13.641,8.709 H 44.005 V 65.02 c 0,-6.402 -2.463,-12.482 -7.059,-17.079 -2.299,-2.298 -4.601,-4.596 -6.898,-7.055 H 10.506 C 7.877,43.515 5.088,46.305 2.298,49.094 1.636,48.274 0.818,47.452 0,46.637 2.459,44.16 5.087,41.55 7.716,38.921 9.03,32.68 10.506,26.43 11.981,20.027 V 14.94 h 36.132 v 5.087 c 1.646,4.604 3.281,9.201 4.927,13.967 v 3.935 H 77.008 V 32.01 h 2.142 v -5.079 h 1.971 v 5.079 h 1.968 v 5.919 h 7.063 3.938 z M 48.113,34.808 C 46.302,29.882 44.501,24.954 42.695,20.028 H 32.511 v 14.78 h 15.602 z m -20.363,0 V 20.028 H 15.924 c -0.983,4.927 -1.967,9.854 -3.12,14.78 H 27.75 z M 48.113,44.823 V 37.929 H 32.511 c 2.137,2.298 4.436,4.596 6.733,6.894 h 8.869 z"
   id="path3039"
   style="fill:#95ba6a;fill-opacity:1;fill-rule:evenodd"
   inkscape:connector-curvature="0" />
</g>
</svg>