<?xml version="1.0"?>
<svg width="100" height="100" xmlns="http://www.w3.org/2000/svg" xmlns:svg="http://www.w3.org/2000/svg" style="vector-effect: non-scaling-stroke;">
 <g>
  <title>Layer 1</title>
  <g id="svg_1" transform="translate(0,1014) scale(0.10000000149011612,-0.10000000149011612) ">
   <path id="svg_2" d="m748.956482,9900.649414c34.536377,-5.185547 64.280457,-24.319336 79.787354,-51.334961l3.311523,-5.696289l67.171631,-22.492188c36.934814,-12.415039 68.793335,-23.297852 70.842163,-24.25c4.507813,-2.112305 9.797424,-7.082031 10.712158,-10.078125c0.491882,-1.453125 0.563843,-5.039063 0.141785,-9.703125c-0.634216,-8.624023 -1.55658,-10.452148 -7.260193,-14.390625c-11.912537,-8.033203 -361.870056,-236.385742 -365.467102,-238.359375c-9.371521,-5.255859 -19.803589,-7.671875 -33.265808,-7.671875c-9.447021,0 -15.083069,0.805664 -22.909668,3.142578c-2.679138,0.874023 -22.345947,8.908203 -43.699615,17.964844c-21.359344,9.055664 -41.722443,17.237305 -45.18338,18.258789c-4.719849,1.316406 -8.80545,1.895508 -16.143646,2.19043c-14.162964,0.579102 -25.510956,-1.384766 -34.745941,-6.138672c-2.254883,-1.168945 -68.511871,-41.332031 -147.169312,-89.234375c-78.733353,-47.980469 -145.198303,-88.289063 -147.80761,-89.674805c-11.203552,-5.913086 -22.409561,-8.476563 -36.866524,-8.476563c-16.069641,0 -20.933319,1.463867 -44.189533,13.289063c-22.419583,11.393555 -24.042235,13.151367 -25.378704,28.484375c-0.634289,7.739258 -0.567991,9.271484 0.427834,12.050781c1.401296,3.800781 5.212059,8.466797 9.089428,11.31543c1.622345,1.167969 69.566067,40.603516 150.972225,87.631836c129.349045,74.78418 148.441727,86.03125 151.550644,89.311523l3.451508,3.722656l-3.174835,2.996094c-1.755066,1.679688 -4.295959,3.584961 -5.642273,4.233398c-1.335968,0.736328 -17.614136,7.670898 -36.29068,15.489258c-41.806076,17.522461 -41.030136,17.15918 -44.621094,20.586914c-4.163849,3.870117 -4.789932,5.480469 -5.357834,14.242188c-0.570358,9.350586 0.075607,11.393555 5.00528,15.920898c2.540939,2.259766 31.577133,18.407227 106.643356,59.148438l103.191559,56.014648l1.620911,6.128906c4.009613,15.774414 10.921875,28.336914 22.477844,40.831055c12.058167,13.067383 25.590485,21.977539 42.36676,28.036133c22.415466,8.109375 45.603638,9.27832 67.243164,3.506836l7.400513,-1.969727l16.563477,9.051758c9.093628,4.969727 18.398376,9.861328 20.653687,10.808594c7.256287,3.143555 13.95459,4.3125 25.866943,4.3125c12.119812,0 14.448792,-0.442383 28.051514,-4.896484c8.390869,-2.701172 9.655518,-2.991211 11.984192,-2.264648c1.406555,0.510742 5.777954,1.827148 9.583191,3.070313c3.877808,1.242188 10.083435,2.921875 13.746704,3.795898c8.881348,1.901367 26.083435,2.412109 35.316406,1.095703zm-39.475525,-16.358398c-13.390564,-3.722656 -23.045959,-8.324219 -32.137207,-15.332031c-12.830933,-9.861328 -20.935242,-19.575195 -27.135437,-32.570313c-1.906982,-4.016602 -3.457275,-7.818359 -3.457275,-8.329102s1.128479,-3.209961 2.540466,-6.058594c2.81543,-5.845703 6.272583,-16.285156 6.978577,-21.245117c0.280457,-1.757813 0.702454,-3.584961 0.91449,-3.949219c0.28009,-0.441406 3.663513,-1.316406 7.54248,-1.974609c27.419678,-4.959961 56.387756,-23.435547 69.706604,-44.473633l2.186768,-3.49707l4.725037,0c6.062378,0 19.661194,1.817383 27.345764,3.72168c24.672363,5.914063 43.491394,18.03418 53.638733,34.396484c3.033142,4.891602 3.735596,6.640625 4.2995,11.020508c2.049011,15.116211 -3.593323,35.202148 -14.446838,51.487305c-10.077759,15.189453 -28.265869,28.989258 -45.676147,34.685547c-13.039978,4.306641 -17.267761,4.890625 -33.759521,4.601563c-14.311096,-0.219727 -15.581909,-0.366211 -23.265991,-2.483398zm-177.477722,-18.838867c-13.674805,-2.847656 -27.979889,-9.276367 -38.2052,-17.15918c-15.785522,-12.050781 -26.14743,-26.803711 -31.503052,-44.985352c-1.620758,-5.62793 -1.904846,-7.740234 -1.904846,-16.648438c-0.065918,-9.498047 0.066376,-10.587891 1.762604,-14.68457c8.807404,-21.323242 34.536194,-37.755859 67.949677,-43.374023c11.414185,-1.974609 11.555847,-1.974609 12.476501,0.943359c1.828308,5.333984 7.890625,16.874023 11.839844,22.423828c7.749023,10.804688 19.098816,21.254883 30.87262,28.484375c5.000122,3.064453 5.144165,3.209961 3.805603,4.300781c-0.778198,0.658203 -2.538879,3.722656 -3.947571,6.944336c-5.569702,12.699219 -15.717651,25.261719 -26.642944,33.080078c-2.959229,2.113281 -5.850098,4.085938 -6.484375,4.301758c-1.692505,0.658203 -11.205994,-6.570313 -18.46814,-13.947266c-4.08606,-4.164063 -7.963318,-9.123047 -10.712097,-13.504883c-5.641663,-9.203125 -7.262207,-10.960938 -10.011353,-10.960938c-2.88736,0 -6.342377,3.4375 -6.342377,6.286133c0,4.311523 10.71402,20.154297 19.104645,28.405273c3.521301,3.505859 9.583191,8.760742 11.840088,10.37207c0.140442,0.145508 0.140442,0.362305 0,0.579102c-0.773987,0.805664 -14.240784,4.094727 -20.724976,5.117188c-5.991821,0.874023 -7.257355,1.316406 -8.668701,2.916016c-2.187622,2.702148 -2.043274,5.845703 0.491669,8.47168c2.398804,2.486328 3.457062,2.558594 12.404755,1.022461c8.741028,-1.458984 16.495605,-3.648438 23.829895,-6.644531l6.200256,-2.632813l6.484314,2.99707c7.260254,3.289063 16.353394,6.428711 20.230896,7.086914c4.369019,0.732422 7.682495,-1.900391 7.748718,-6.06543c0,-3.870117 -2.250854,-5.549805 -11.414185,-8.544922c-4.511414,-1.453125 -8.460693,-2.916016 -8.603027,-3.280273c-0.207581,-0.364258 1.412842,-2.042969 3.669678,-3.801758c6.484192,-5.038086 15.291077,-14.820313 20.224915,-22.491211c5.357666,-8.319336 9.519165,-17.306641 9.519165,-20.439453c0,-1.248047 0.069824,-2.269531 0.208313,-2.269531c0.142029,0 2.606934,0.805664 5.497803,1.826172c11.704041,4.166016 25.022522,6.935547 33.343384,6.935547c2.534973,0 4.649414,0.294922 4.649414,0.658203c0,1.316406 -5.143188,15.852539 -6.835632,19.348633c-5.498535,11.325195 -16.210144,24.102539 -26.785828,31.991211c-12.968506,9.712891 -24.246277,14.241211 -45.320007,18.401367c-3.598999,0.731445 -26.294556,-0.290039 -31.580444,-1.458984zm87.260132,-85.589844c-18.466431,-5.107422 -32.20929,-13.220703 -45.181824,-26.725586c-8.598572,-8.907227 -16.211426,-22.275391 -19.662781,-34.759766c-1.904297,-7.014648 -2.679016,-20.087891 -1.412292,-25.635742c4.583374,-20.302734 27.629395,-38.482422 58.644531,-46.300781c21.85144,-5.470703 47.432495,-5.402344 69.148071,0.293945c24.246338,6.355469 41.441956,17.964844 51.592041,34.761719l3.454712,5.775391l0.280273,8.612305c0.354065,9.861328 -0.352051,14.605469 -3.734985,24.682617c-6.272522,18.918945 -17.76239,34.318359 -33.974243,45.564453c-10.995728,7.524414 -19.172485,11.099609 -34.041992,14.685547c-6.910217,1.679688 -8.460266,1.825195 -22.203491,1.53125c-13.888733,-0.21582 -15.295044,-0.362305 -22.90802,-2.485352z" fill="#bda36c"/>
   <path id="svg_3" d="m764.884033,9874.361328c3.805359,-1.753906 4.791504,-7.376953 1.762756,-10.224609c-0.634338,-0.658203 -3.877319,-1.969727 -7.190674,-2.922852c-3.242981,-1.021484 -7.258484,-2.40625 -8.948853,-3.137695l-3.035217,-1.316406l5.713806,-4.744141c7.260498,-5.844727 13.740723,-13.141602 19.030823,-21.323242c5.071472,-7.740234 9.30304,-16.795898 9.370911,-20.007813c0.070313,-3.359375 -1.830505,-5.991211 -4.793274,-6.580078c-3.66333,-0.649414 -5.635925,1.099609 -8.5271,7.522461c-5.642273,12.925781 -16.353638,25.999023 -27.909607,34.101563l-6.062073,4.243164l-5.569885,-3.869141c-8.106995,-5.775391 -18.254333,-16.511719 -23.260193,-24.761719c-5.712097,-9.272461 -6.626465,-10.224609 -9.727356,-10.224609c-3.383179,0 -5.992065,2.631836 -5.992065,6.138672c0,6.354492 13.604553,24.682617 25.938904,34.829102l5.075806,4.239258l-4.511414,1.457031c-5.355957,1.679688 -13.182495,3.432617 -19.030334,4.166016c-5.286194,0.657227 -7.47113,2.553711 -7.47113,6.717773c0,4.307617 2.535278,6.428711 7.328491,6.208008c6.418457,-0.294922 18.610474,-3.138672 26.785461,-6.133789c4.299927,-1.679688 8.457092,-3.143555 9.235535,-3.359375c0.842102,-0.147461 4.299011,0.946289 7.82605,2.553711c6.2005,2.848633 15.433655,6.133789 19.66095,7.012695c1.2005,0.220703 3.10144,-0.073242 4.299683,-0.583984z" fill="#bda36c"/>
   <path id="svg_4" d="m676.001038,9768.401367c3.737305,-3.801758 1.484314,-9.783203 -4.2276,-10.882813c-3.450989,-0.727539 -14.446716,-4.823242 -14.446716,-5.402344c0.069824,-0.294922 1.97052,-1.974609 4.299255,-3.799805c5.635925,-4.302734 14.305298,-13.731445 18.960693,-20.518555c4.577942,-6.71875 10.569641,-19.132813 10.569641,-21.980469c0,-2.916992 -3.378967,-6.424805 -6.27002,-6.424805c-2.82135,0 -5.147949,2.407227 -7.120483,7.297852c-5.075806,12.77832 -16.28186,26.509766 -28.758362,35.124023c-5.075195,3.505859 -5.14325,3.505859 -7.048035,2.336914c-10.361816,-6.787109 -20.511047,-17.011719 -26.995483,-27.236328c-6.133972,-9.712891 -6.626404,-10.224609 -9.93927,-10.224609c-3.385498,0 -6.202393,2.564453 -6.202393,5.628906c0,2.621094 5.144104,12.041992 10.079834,18.328125c4.719421,6.05957 11.559937,13.141602 16.917542,17.522461c3.313293,2.702148 3.877197,3.4375 2.957214,3.948242c-1.900513,1.089844 -13.955078,4.085938 -20.01709,4.960938c-7.258423,1.021484 -7.678772,1.168945 -8.879272,3.732422c-1.550232,3.064453 -1.270203,5.618164 0.772522,7.740234c1.762512,1.825195 2.04834,1.895508 7.968445,1.452148c7.39856,-0.579102 20.297424,-3.870117 28.616516,-7.297852l6.061707,-2.553711l6.836426,3.133789c8.811035,4.016602 17.832214,6.943359 21.359314,6.943359c2.040649,-0.001953 3.313232,-0.512695 4.505615,-1.828125z" fill="#bda36c"/>
  </g>
 </g>
</svg>